<?xml version="1.0" encoding="UTF-8" standalone="no"?>
<!DOCTYPE svg PUBLIC "-//W3C//DTD SVG 1.1//EN"
 "http://www.w3.org/Graphics/SVG/1.1/DTD/svg11.dtd">
<!-- Generated by graphviz version 2.46.0 (20210119.1425)
 -->
<!-- Title: dependencies Pages: 1 -->
<svg width="942pt" height="290pt"
 viewBox="0.00 0.00 942.00 290.00" xmlns="http://www.w3.org/2000/svg" xmlns:xlink="http://www.w3.org/1999/xlink">
<g id="graph0" class="graph" transform="scale(1 1) rotate(0) translate(4 286)">
<title>dependencies</title>
<polygon fill="white" stroke="transparent" points="-4,4 -4,-286 938,-286 938,4 -4,4"/>
<text text-anchor="start" x="446.01" y="-42.4" font-family="sans-serif" font-weight="bold" font-size="14.00">Legend</text>
<polygon fill="#ffffb3" stroke="transparent" points="233,-10 233,-30 253,-30 253,-10 233,-10"/>
<text text-anchor="start" x="256.63" y="-15.4" font-family="sans-serif" font-size="14.00"> &#160;Declarations</text>
<polygon fill="#8dd3c7" stroke="transparent" points="346,-10 346,-30 366,-30 366,-10 346,-10"/>
<text text-anchor="start" x="369.73" y="-15.4" font-family="sans-serif" font-size="14.00"> &#160;Module</text>
<polygon fill="#80b1d3" stroke="transparent" points="432,-10 432,-30 452,-30 452,-10 432,-10"/>
<text text-anchor="start" x="455.78" y="-15.4" font-family="sans-serif" font-size="14.00"> &#160;Bootstrap</text>
<polygon fill="#fdb462" stroke="transparent" points="529,-10 529,-30 549,-30 549,-10 529,-10"/>
<text text-anchor="start" x="552.67" y="-15.4" font-family="sans-serif" font-size="14.00"> &#160;Providers</text>
<polygon fill="#fb8072" stroke="transparent" points="625,-10 625,-30 645,-30 645,-10 625,-10"/>
<text text-anchor="start" x="648.73" y="-15.4" font-family="sans-serif" font-size="14.00"> &#160;Exports</text>
<g id="clust1" class="cluster">
<title>cluster_AppModule</title>
<polygon fill="none" stroke="black" stroke-dasharray="1,5" points="8,-70 8,-274 314,-274 314,-70 8,-70"/>
</g>
<g id="clust2" class="cluster">
<title>cluster_AppModule_declarations</title>
<polygon fill="none" stroke="black" points="16,-78 16,-130 138,-130 138,-78 16,-78"/>
</g>
<g id="clust4" class="cluster">
<title>cluster_AppModule_imports</title>
<polygon fill="none" stroke="black" points="146,-78 146,-130 306,-130 306,-78 146,-78"/>
</g>
<g id="clust6" class="cluster">
<title>cluster_AppModule_bootstrap</title>
<polygon fill="none" stroke="black" points="90,-214 90,-266 214,-266 214,-214 90,-214"/>
</g>
<g id="clust8" class="cluster">
<title>cluster_PhotoUploaderModule</title>
<polygon fill="none" stroke="black" stroke-dasharray="1,5" points="322,-138 322,-206 714,-206 714,-138 322,-138"/>
</g>
<g id="clust9" class="cluster">
<title>cluster_PhotoUploaderModule_declarations</title>
<polygon fill="none" stroke="black" points="524,-146 524,-198 706,-198 706,-146 524,-146"/>
</g>
<g id="clust12" class="cluster">
<title>cluster_PhotoUploaderModule_exports</title>
<polygon fill="none" stroke="black" points="330,-146 330,-198 516,-198 516,-146 330,-146"/>
</g>
<g id="clust15" class="cluster">
<title>cluster_VideoUploaderModule</title>
<polygon fill="none" stroke="black" stroke-dasharray="1,5" points="722,-70 722,-274 926,-274 926,-70 722,-70"/>
</g>
<g id="clust16" class="cluster">
<title>cluster_VideoUploaderModule_declarations</title>
<polygon fill="none" stroke="black" points="732,-78 732,-130 916,-130 916,-78 732,-78"/>
</g>
<g id="clust19" class="cluster">
<title>cluster_VideoUploaderModule_exports</title>
<polygon fill="none" stroke="black" points="730,-214 730,-266 918,-266 918,-214 730,-214"/>
</g>
<!-- AppComponent -->
<g id="node1" class="node">
<title>AppComponent</title>
<polygon fill="#ffffb3" stroke="black" points="129.94,-122 24.06,-122 24.06,-86 129.94,-86 129.94,-122"/>
<text text-anchor="middle" x="77" y="-99.8" font-family="Times,serif" font-size="14.00">AppComponent</text>
</g>
<!-- AppModule -->
<g id="node2" class="node">
<title>AppModule</title>
<polygon fill="#8dd3c7" stroke="black" points="193.66,-190 190.66,-194 169.66,-194 166.66,-190 110.34,-190 110.34,-154 193.66,-154 193.66,-190"/>
<text text-anchor="middle" x="152" y="-167.8" font-family="Times,serif" font-size="14.00">AppModule</text>
</g>
<!-- AppComponent&#45;&gt;AppModule -->
<g id="edge1" class="edge">
<title>AppComponent&#45;&gt;AppModule</title>
<path fill="none" stroke="black" d="M119.95,-122.22C119.95,-122.22 119.95,-143.73 119.95,-143.73"/>
<polygon fill="black" stroke="black" points="116.45,-143.73 119.95,-153.73 123.45,-143.73 116.45,-143.73"/>
</g>
<!-- AppComponent  -->
<g id="node4" class="node">
<title>AppComponent </title>
<polygon fill="#80b1d3" stroke="black" points="206.44,-258 97.56,-258 97.56,-222 206.44,-222 206.44,-258"/>
<text text-anchor="middle" x="152" y="-235.8" font-family="Times,serif" font-size="14.00">AppComponent </text>
</g>
<!-- AppModule&#45;&gt;AppComponent  -->
<g id="edge3" class="edge">
<title>AppModule&#45;&gt;AppComponent </title>
<path fill="none" stroke="black" stroke-dasharray="1,5" d="M152,-190.22C152,-190.22 152,-211.73 152,-211.73"/>
<polygon fill="black" stroke="black" points="148.5,-211.73 152,-221.73 155.5,-211.73 148.5,-211.73"/>
</g>
<!-- PhotoUploaderModule -->
<g id="node3" class="node">
<title>PhotoUploaderModule</title>
<polygon fill="#8dd3c7" stroke="black" points="298.31,-122 295.31,-126 274.31,-126 271.31,-122 153.69,-122 153.69,-86 298.31,-86 298.31,-122"/>
<text text-anchor="middle" x="226" y="-99.8" font-family="Times,serif" font-size="14.00">PhotoUploaderModule</text>
</g>
<!-- PhotoUploaderModule&#45;&gt;AppModule -->
<g id="edge2" class="edge">
<title>PhotoUploaderModule&#45;&gt;AppModule</title>
<path fill="none" stroke="black" d="M173.84,-122.22C173.84,-122.22 173.84,-143.73 173.84,-143.73"/>
<polygon fill="black" stroke="black" points="170.34,-143.73 173.84,-153.73 177.34,-143.73 170.34,-143.73"/>
</g>
<!-- PhotoUploaderComponent  -->
<g id="node6" class="node">
<title>PhotoUploaderComponent </title>
<polygon fill="#fb8072" stroke="black" points="507.59,-190 338.41,-190 338.41,-154 507.59,-154 507.59,-190"/>
<text text-anchor="middle" x="423" y="-167.8" font-family="Times,serif" font-size="14.00">PhotoUploaderComponent </text>
</g>
<!-- PhotoUploaderModule&#45;&gt;PhotoUploaderComponent  -->
<g id="edge5" class="edge">
<title>PhotoUploaderModule&#45;&gt;PhotoUploaderComponent </title>
<path fill="none" stroke="black" stroke-dasharray="5,2" d="M252.31,-122.22C252.31,-142.37 252.31,-172 252.31,-172 252.31,-172 328.41,-172 328.41,-172"/>
<polygon fill="black" stroke="black" points="328.41,-175.5 338.41,-172 328.41,-168.5 328.41,-175.5"/>
</g>
<!-- PhotoUploaderComponent -->
<g id="node5" class="node">
<title>PhotoUploaderComponent</title>
<polygon fill="#ffffb3" stroke="black" points="698.09,-190 531.91,-190 531.91,-154 698.09,-154 698.09,-190"/>
<text text-anchor="middle" x="615" y="-167.8" font-family="Times,serif" font-size="14.00">PhotoUploaderComponent</text>
</g>
<!-- PhotoUploaderComponent&#45;&gt;PhotoUploaderModule -->
<g id="edge4" class="edge">
<title>PhotoUploaderComponent&#45;&gt;PhotoUploaderModule</title>
<path fill="none" stroke="black" d="M615,-153.78C615,-133.63 615,-104 615,-104 615,-104 308.26,-104 308.26,-104"/>
<polygon fill="black" stroke="black" points="308.26,-100.5 298.26,-104 308.26,-107.5 308.26,-100.5"/>
</g>
<!-- VideoUploaderComponent -->
<g id="node7" class="node">
<title>VideoUploaderComponent</title>
<polygon fill="#ffffb3" stroke="black" points="907.63,-122 740.37,-122 740.37,-86 907.63,-86 907.63,-122"/>
<text text-anchor="middle" x="824" y="-99.8" font-family="Times,serif" font-size="14.00">VideoUploaderComponent</text>
</g>
<!-- VideoUploaderModule -->
<g id="node8" class="node">
<title>VideoUploaderModule</title>
<polygon fill="#8dd3c7" stroke="black" points="896.85,-190 893.85,-194 872.85,-194 869.85,-190 751.15,-190 751.15,-154 896.85,-154 896.85,-190"/>
<text text-anchor="middle" x="824" y="-167.8" font-family="Times,serif" font-size="14.00">VideoUploaderModule</text>
</g>
<!-- VideoUploaderComponent&#45;&gt;VideoUploaderModule -->
<g id="edge6" class="edge">
<title>VideoUploaderComponent&#45;&gt;VideoUploaderModule</title>
<path fill="none" stroke="black" d="M824,-122.22C824,-122.22 824,-143.73 824,-143.73"/>
<polygon fill="black" stroke="black" points="820.5,-143.73 824,-153.73 827.5,-143.73 820.5,-143.73"/>
</g>
<!-- VideoUploaderComponent  -->
<g id="node9" class="node">
<title>VideoUploaderComponent </title>
<polygon fill="#fb8072" stroke="black" points="909.63,-258 738.37,-258 738.37,-222 909.63,-222 909.63,-258"/>
<text text-anchor="middle" x="824" y="-235.8" font-family="Times,serif" font-size="14.00">VideoUploaderComponent </text>
</g>
<!-- VideoUploaderModule&#45;&gt;VideoUploaderComponent  -->
<g id="edge7" class="edge">
<title>VideoUploaderModule&#45;&gt;VideoUploaderComponent </title>
<path fill="none" stroke="black" stroke-dasharray="5,2" d="M824,-190.22C824,-190.22 824,-211.73 824,-211.73"/>
<polygon fill="black" stroke="black" points="820.5,-211.73 824,-221.73 827.5,-211.73 820.5,-211.73"/>
</g>
</g>
</svg>
